<?xml version="1.0" encoding="UTF-8" standalone="no"?>
<!-- Created with Inkscape (http://www.inkscape.org/) -->

<svg
   xmlns:dc="http://purl.org/dc/elements/1.1/"
   xmlns:cc="http://creativecommons.org/ns#"
   xmlns:rdf="http://www.w3.org/1999/02/22-rdf-syntax-ns#"
   xmlns:svg="http://www.w3.org/2000/svg"
   xmlns="http://www.w3.org/2000/svg"
   xmlns:sodipodi="http://sodipodi.sourceforge.net/DTD/sodipodi-0.dtd"
   xmlns:inkscape="http://www.inkscape.org/namespaces/inkscape"
   version="1.1"
   id="svg2"
   width="600"
   height="600"
   viewBox="0 0 600 600"
   sodipodi:docname="sciworks-abstract.svg"
   inkscape:version="0.92.5 (2060ec1f9f, 2020-04-08)">
  <metadata
     id="metadata8">
    <rdf:RDF>
      <cc:Work
         rdf:about="">
        <dc:format>image/svg+xml</dc:format>
        <dc:type
           rdf:resource="http://purl.org/dc/dcmitype/StillImage" />
        <dc:title></dc:title>
      </cc:Work>
    </rdf:RDF>
  </metadata>
  <defs
     id="defs6" />
  <sodipodi:namedview
     pagecolor="#ffffff"
     bordercolor="#666666"
     borderopacity="1"
     objecttolerance="10"
     gridtolerance="10"
     guidetolerance="10"
     inkscape:pageopacity="0"
     inkscape:pageshadow="2"
     inkscape:window-width="1848"
     inkscape:window-height="1016"
     id="namedview4"
     showgrid="false"
     inkscape:zoom="0.97746479"
     inkscape:cx="63.429395"
     inkscape:cy="388.14084"
     inkscape:window-x="72"
     inkscape:window-y="27"
     inkscape:window-maximized="1"
     inkscape:current-layer="g817" />
  <g
     id="g817"
     transform="translate(0,389)">
    <path
       style="fill:#a7d0ea;stroke-width:5.86869097"
       d="M 205.13845,171.66403 C 129.35173,140.5048 84.23587,81.40226 79.462734,7.026752 74.566369,-69.269286 98.666817,-126.23089 165.98292,-197.46454 c 21.78506,-23.05286 42.6339,-47.68272 46.33076,-54.73303 9.19083,-17.52792 8.43314,-48.34439 -1.90943,-77.65835 -7.58702,-21.50392 -7.58892,-24.86269 -0.016,-27.7688 20.3265,-7.80002 105.92542,65.65544 130.52663,112.00948 5.2465,9.88558 12.75989,32.49881 16.69637,50.25158 4.47305,20.1725 7.34173,26.22516 7.64912,16.13891 0.3561,-11.68547 3.52445,-16.13891 11.48178,-16.13891 15.79558,0 57.85616,48.08702 76.09904,87.00247 13.47211,28.738542 15.61313,40.950869 15.61313,89.05824 0,47.975424 -2.15728,60.353374 -15.46501,88.734656 -8.50573,18.140178 -25.29558,43.863484 -37.31084,57.162954 -23.2139,25.695 -88.84278,61.92313 -106.11167,58.57529 -19.03208,-3.68972 -15.22196,-15.93469 8.76605,-28.17249 25.54029,-13.02967 38.96848,-29.46011 47.01931,-57.531729 6.68654,-23.314605 -0.78465,-57.919933 -11.83209,-54.804229 -30.74998,8.672329 -39.56323,6.999337 -60.64731,-11.512746 -24.3747,-21.401396 -43.04897,-54.268078 -53.14344,-93.532549 -3.73423,-14.52501 -9.25784,-26.104687 -12.27469,-25.732683 -3.01688,0.372084 -12.7477,14.538397 -21.6241,31.480767 -24.92398,47.5724968 -20.70642,81.723987 17.54912,142.103614 13.08148,20.646755 6.53555,26.102815 -22.13559,18.450035 -18.27831,-4.87875 -23.28982,-4.59448 -23.28982,1.32104 0,13.3763 27.94951,41.23891 52.45035,52.28724 13.11344,5.91335 23.84263,14.31186 23.84263,18.66326 0,11.03449 -9.45442,9.77825 -49.10893,-6.52545 z"
       id="path831"
       inkscape:connector-curvature="0"
       sodipodi:nodetypes="ssssscsssssscsccsscscsssssss" />
    <path
       style="fill:#098fd4;stroke-width:5.86869097;fill-opacity:1"
       d="M 344.64956,150.59578 C 369.2788,128.97101 379.87424,99.813157 375.9037,64.58681 372.06338,30.515479 364.70622,23.082313 345.17145,33.53704 323.9357,44.902057 302.83959,35.798891 279.50063,5.1994676 268.89478,-8.7057413 256.05232,-35.092539 250.96185,-53.437841 236.05569,-107.15718 238.03829,-104.79147 221.04223,-89.139194 184.43025,-55.421872 173.74492,6.3341339 196.24194,54.194467 c 6.83037,14.530955 14.7531,27.862606 17.60607,29.625872 2.85298,1.763185 5.18723,7.293896 5.18723,12.29043 0,6.253091 -3.20099,7.846211 -10.27021,5.111341 -5.64861,-2.18526 -17.83463,-5.499246 -27.08,-7.364315 -15.52274,-3.131485 -16.48821,-2.313681 -12.60964,10.681175 2.31007,7.73976 11.97961,23.97574 21.48786,36.07992 19.77147,25.16946 18.65815,26.23316 -11.37547,10.86847 C 149.66492,136.38398 115.96064,102.60009 100.68442,72.798578 83.128655,38.550072 79.590373,-24.340281 92.669959,-69.652682 106.2912,-116.84162 119.60115,-137.4322 172.37968,-192.96428 c 25.39144,-26.71617 48.11872,-56.54044 51.96341,-68.18994 6.53702,-19.80737 3.49521,-48.22486 -8.19128,-76.5252 -13.78351,-33.37858 70.77933,27.9261 101.12318,73.31026 26.20262,39.1903 30.85765,54.62778 31.06669,103.02662 l 0.19531,45.2062 11.35476,-13.62333 c 6.24513,-7.4928 13.05345,-22.67805 15.12961,-33.74496 2.07618,-11.0669 5.89741,-20.12165 8.49164,-20.12165 11.16482,0 53.29974,56.76534 64.70106,87.167116 15.16476,40.436743 16.75177,109.261471 3.37069,146.177767 -14.15064,39.039637 -42.60968,75.941647 -75.80911,98.299417 -39.17036,26.37888 -60.21941,28.12206 -31.12602,2.57776 z"
       id="path829"
       inkscape:connector-curvature="0"
       sodipodi:nodetypes="cscsssccscccscsssssssccssccsc" />
    <path
       style="fill:#2399d7;stroke-width:5.86869097"
       d="M 344.64956,150.59578 C 369.2788,128.97101 379.87424,99.813157 375.9037,64.58681 372.21089,31.824207 363.99284,22.257068 348.07958,32.195035 310.51218,55.65625 265.10663,8.9406586 248.11483,-70.654003 c -8.07071,-37.805497 -17.05212,-39.210927 -40.8283,-6.388893 -35.44211,48.926392 -37.35043,98.100042 -5.74132,147.94249 18.28459,28.831809 14.7645,33.699666 -14.67083,20.288056 -24.51692,-11.170706 -28.92465,0.623911 -12.07555,32.31273 l 14.65854,27.56889 -16.02169,-8.40943 C 152.03784,131.42865 117.1479,94.120055 104.2961,68.727417 89.045354,38.594959 86.304946,-27.270751 98.538639,-69.652682 111.7394,-115.38491 125.1652,-136.37965 176.11012,-190.95603 c 50.7492,-54.36671 60.11868,-77.53374 49.6679,-122.80902 -3.81794,-16.54026 -6.09104,-30.92386 -5.05131,-31.96359 4.4449,-4.4449 63.08326,40.1844 82.30779,62.64393 34.03305,39.75997 45.08414,69.3717 45.30718,121.40206 l 0.19531,45.54631 11.35476,-13.62333 c 6.24513,-7.4928 13.05345,-22.67805 15.12961,-33.74496 2.07618,-11.0669 5.89741,-20.12165 8.49164,-20.12165 11.16482,0 53.29974,56.76534 64.70106,87.167116 15.16476,40.436743 16.75177,109.261471 3.37069,146.177767 -14.15064,39.039637 -42.60968,75.941647 -75.80911,98.299417 -39.17036,26.37888 -60.21941,28.12206 -31.12602,2.57776 z"
       id="path827"
       inkscape:connector-curvature="0"
       sodipodi:nodetypes="cssssscsccsssscssccssccsc" />
    <path
       style="fill:#117ac2;stroke-width:5.86869097"
       d="M 145.05083,120.34227 C 108.49582,86.64699 94.521323,57.128228 91.223117,6.6403039 88.22025,-39.326631 99.596898,-89.585212 121.00775,-124.93936 c 6.84174,-11.29725 32.60734,-41.70645 57.25691,-67.57605 57.24676,-60.08014 64.67119,-80.33839 48.89946,-133.42663 -5.47787,-18.43863 9.72328,-10.86659 44.19648,22.01527 58.2437,55.5551 79.00623,109.0675 64.98872,167.49907 -8.07459,33.65864 -1.68608,45.319917 18.81676,34.34709 9.85435,-5.27387 10.57516,-1.89746 10.4234,48.826227 C 365.43307,-0.98623556 364.7327,1.9179405 348.42569,17.912235 328.13368,37.81508 317.3578,35.889862 289.77765,7.4343868 275.75262,-7.0358011 266.5592,-25.575754 257.06051,-58.544957 c -8.46996,-29.398504 -16.50066,-46.513823 -22.3779,-47.692593 -10.98442,-2.2031 -41.49279,38.012717 -51.23822,67.541693 -9.15613,27.743346 -4.33187,71.316022 11.19383,101.10269 6.96281,13.358484 12.65964,25.646879 12.65964,27.307662 0,1.660723 -8.94076,1.342224 -19.86833,-0.70776 -26.48553,-4.968744 -30.87388,4.061366 -15.91793,32.755005 15.60843,29.94545 7.06918,29.48734 -26.46077,-1.41947 z"
       id="path825"
       inkscape:connector-curvature="0"
       sodipodi:nodetypes="sssssssssscscscsccs" />
    <path
       style="fill:#205ca8;stroke-width:5.86869097"
       d="M 145.05083,120.34227 C 108.49582,86.64699 94.521323,57.128228 91.223117,6.6403039 88.221706,-39.304387 99.587741,-89.547726 120.98902,-124.93936 c 6.83142,-11.29725 34.18563,-43.28404 60.78715,-71.08177 26.60151,-27.79775 50.24443,-58.02405 52.5398,-67.16955 2.29537,-9.14552 1.55934,-29.38925 -1.63563,-44.98604 -4.11816,-20.10356 -3.96006,-27.74897 0.54316,-26.26606 16.3239,5.37548 20.85004,32.43329 20.81036,124.4074 l -0.0405,93.89904 -18.86974,8.80304 c -11.08311,5.17042 -26.16647,20.721749 -36.55231,37.686244 -23.11407,37.755227 -24.97296,92.226134 -4.478,131.219308 7.26249,13.817469 13.20455,26.48146 13.20455,28.142243 0,1.660723 -8.94076,1.342224 -19.86833,-0.70776 -26.48555,-4.968744 -30.8739,4.061366 -15.91793,32.755005 15.60843,29.94545 7.06918,29.48734 -26.46077,-1.41947 z"
       id="path823"
       inkscape:connector-curvature="0"
       sodipodi:nodetypes="csssssssccssscccc" />
  </g>
</svg>
